<?xml version="1.0" encoding="UTF-8"?>
<svg id="_Слой_1" data-name=" Слой 1" xmlns="http://www.w3.org/2000/svg" viewBox="0 0 192.5 60.6">
  <defs>
    <style>
      .cls-1 {
        fill: #fff;
      }

      .cls-2 {
        fill: #4b321d;
      }
    </style>
  </defs>
  <path class="cls-2" d="M69,56c-1.9,1.5-3.8,2.6-5.6,3.4s-3.8,1.1-6.1,1.1-3.9-.4-5.4-1.2-2.7-1.9-3.6-3.3c-.8-1.4-1.3-2.9-1.3-4.5s.7-4.1,2.1-5.6c1.4-1.5,3.3-2.6,5.7-3.1.5-.1,1.8-.4,3.8-.8s3.7-.8,5.2-1.1,3-.8,4.7-1.2c0-2.1-.5-3.7-1.3-4.6-.8-1-2.3-1.5-4.7-1.5s-3.6.3-4.6.8c-1,.6-1.9,1.4-2.6,2.5-.7,1.1-1.2,1.9-1.6,2.2-.3.4-1,.5-1.9.5s-1.7-.3-2.3-.9c-.7-.6-1-1.3-1-2.2,0-1.4.5-2.8,1.5-4.1,1-1.3,2.5-2.4,4.7-3.3,2.1-.9,4.7-1.3,7.9-1.3s6.3.4,8.3,1.2c2,.8,3.4,2.1,4.3,3.9.8,1.8,1.2,4.2,1.2,7.1v9.2c0,1.5.2,3.1.7,4.7s.7,2.7.7,3.1c0,.8-.4,1.6-1.2,2.2-.8.7-1.6,1-2.6,1s-1.6-.4-2.4-1.2c-.8-.8-1.7-1.9-2.5-3.4l-.1.4ZM68.5,44.4c-1.2.4-2.9.9-5.1,1.4-2.2.5-3.8.8-4.6,1.1-.9.2-1.7.7-2.5,1.3-.8.7-1.2,1.6-1.2,2.7s.5,2.2,1.4,3.1c.9.8,2.1,1.3,3.6,1.3s3-.3,4.4-1c1.3-.7,2.3-1.6,2.9-2.7.7-1.2,1.1-3.2,1.1-6v-1.2Z"/>
  <path class="cls-2" d="M91.1,20.7v12.2c1.5-1.6,3-2.8,4.6-3.6,1.6-.8,3.5-1.2,5.8-1.2s5,.6,7,1.9,3.6,3.1,4.7,5.5,1.7,5.2,1.7,8.5-.3,4.6-.9,6.7-1.5,3.8-2.7,5.3-2.6,2.6-4.3,3.4-3.5,1.2-5.5,1.2-2.4-.1-3.5-.4-2-.7-2.8-1.2-1.4-1-1.9-1.5-1.2-1.3-2.1-2.3v.8c0,1.5-.4,2.6-1.1,3.4-.7.8-1.6,1.2-2.8,1.2s-2-.4-2.7-1.2-1-1.9-1-3.4V21.1c0-1.6.3-2.8,1-3.7.7-.8,1.6-1.2,2.7-1.2s2.2.4,2.8,1.2c.7.8,1,1.9,1,3.4v-.1ZM91.4,44.4c0,3.2.7,5.6,2.2,7.3,1.5,1.7,3.4,2.6,5.7,2.6s3.7-.9,5.2-2.6,2.2-4.3,2.2-7.5-.3-3.9-.9-5.4c-.6-1.5-1.5-2.7-2.6-3.5s-2.4-1.2-3.9-1.2-2.9.4-4.1,1.2c-1.2.8-2.1,2-2.8,3.6s-1,3.4-1,5.6v-.1Z"/>
  <path class="cls-2" d="M127.8,20.7v12.2c1.5-1.6,3-2.8,4.6-3.6,1.6-.8,3.5-1.2,5.8-1.2s5,.6,7,1.9,3.6,3.1,4.7,5.5,1.7,5.2,1.7,8.5-.3,4.6-.9,6.7-1.5,3.8-2.7,5.3-2.6,2.6-4.3,3.4-3.5,1.2-5.5,1.2-2.4-.1-3.5-.4-2-.7-2.8-1.2-1.4-1-1.9-1.5-1.2-1.3-2.1-2.3v.8c0,1.5-.4,2.6-1.1,3.4s-1.6,1.2-2.8,1.2-2-.4-2.7-1.2-1-1.9-1-3.4V21.1c0-1.6.3-2.8,1-3.7.7-.8,1.6-1.2,2.7-1.2s2.2.4,2.8,1.2c.7.8,1,1.9,1,3.4v-.1ZM128.2,44.4c0,3.2.7,5.6,2.2,7.3,1.5,1.7,3.4,2.6,5.7,2.6s3.7-.9,5.2-2.6,2.2-4.3,2.2-7.5-.3-3.9-.9-5.4-1.5-2.7-2.6-3.5-2.4-1.2-3.9-1.2-2.9.4-4.1,1.2c-1.2.8-2.1,2-2.8,3.6-.7,1.6-1,3.4-1,5.6v-.1Z"/>
  <path class="cls-2" d="M161.8,28c-1.2,0-2.1.4-2.9,1.2-.7.8-1.1,2-1.1,3.6v22.9c0,1.6.4,2.8,1.1,3.6s1.7,1.3,2.9,1.3,2.1-.4,2.9-1.2,1.1-2,1.1-3.6v-23.1c0-1.4-.4-2.5-1.1-3.3-.8-.8-1.7-1.2-2.9-1.2v-.2Z"/>
  <path class="cls-2" d="M174.6,28.7h.9v-4.8c0-1.3,0-2.3.1-3s.3-1.4.6-1.9c.3-.5.8-1,1.3-1.3.6-.3,1.2-.5,2-.5s1.9.4,2.8,1.1c.5.5.9,1.1,1,1.9s.2,1.8.2,3.1v5.4h2.9c1.1,0,2,.3,2.6.8s.9,1.2.9,2.1-.4,1.8-1.3,2.3c-.8.4-2.1.6-3.6.6h-1.5v14.7c0,1.2,0,2.2.1,2.9s.3,1.2.7,1.6,1,.6,1.9.6,1.1,0,1.9-.2,1.4-.2,1.9-.2c.6,0,1.2.3,1.7.8s.8,1.2.8,1.9c0,1.3-.7,2.3-2.1,3s-3.4,1-6.1,1-4.4-.4-5.7-1.3-2.1-2-2.5-3.5-.6-3.5-.6-5.9v-15.4h-1.1c-1.2,0-2-.3-2.6-.8s-.9-1.2-.9-2.1.3-1.5,1-2.1c.6-.5,1.6-.8,2.8-.8h-.1Z"/>
  <path class="cls-2" d="M44.7,7.3l-1.4,12.3c-1.3,15.4-3.4,35.6-3.4,35.6,0,1.8-.4,3.1-1.2,4s-1.9,1.3-3.2,1.3-2.4-.4-3.1-1.3c-.8-.9-1.2-2.2-1.2-4v-14.4h-9v-2.8,2.8h-9v14.4c-.1,1.8-.5,3.1-1.3,4s-1.8,1.3-3.2,1.3c-1.3,0-2.3-.5-3.1-1.3-.8-.9-1.2-2.2-1.2-4,0,0-1.9-20.2-3.1-35.6L0,7.3c0-2,.8-3.8,2.2-5.2C3.5.8,5.4,0,7.4,0s3.9.9,5.1,2.3h0s0,.1.2.2c0,0,.2.2.2.3.8,1,1.8,2.6,1.7,4.1-.1,3.8-.5,11.9-.9,18.3v.2c-.3,4.7-.5,8.4-.5,8.4h17.9s-.2-3.6-.4-8.3v-.2c-.3-6.3-.7-14.5-.8-18.3,0-1.5,1-3.1,1.8-4.1,0-.1.2-.2.2-.3,0,0,.1-.1.2-.2h0c1.2-1.4,3-2.2,5.1-2.2s3.9.8,5.2,2.2c1.3,1.3,2.1,3.1,2.1,5.2l.2-.3Z"/>
  <path class="cls-1" d="M41.4,12.2l-1,7.7c-1.5,9.2-1.5,9.8-1.5,9.8h-1.9c0-.1-1.7-.1-1.7-.1,0,0,0-.6-.9-9.9l-.6-7.7c0-1.3.5-2.4,1.1-3.2.6-.8,1.8-1.3,2.8-1.3h.1c.9,0,2.1.6,2.7,1.4.6.9.9,2,.9,3.3h0Z"/>
  <path class="cls-1" d="M4,11.6l.9,7.9c1.3,9.5,1.4,10.1,1.4,10.2h1.7c0-.1,1.6,0,1.6,0,0,0,0-.7.9-10.2l.6-8c0-1.3-.4-2.5-1-3.3s-1.7-1.3-2.6-1.3h-.1c-.9,0-2,.6-2.5,1.4-.6.9-.9,2.1-.9,3.4v-.1Z"/>
  <path class="cls-2" d="M167.5,16.4c1.1,1.1,1.2,3,0,4.1l-5.4,5.5-.2-.2h0l-5.5-5.4c-1.1-1.1-1.2-3,0-4.1h0c1.1-1.1,2.9-1.2,4.1,0l1.6,1.6h0l1.4-1.4c1.1-1.1,2.9-1.2,4.1,0h0l-.1-.1Z"/>
</svg>