<?xml version="1.0" encoding="UTF-8"?>
<svg id="_Слой_1" data-name=" Слой 1" xmlns="http://www.w3.org/2000/svg" viewBox="0 0 44.7 60.5">
  <defs>
    <style>
      .cls-1 {
        fill: #fff;
      }

      .cls-2 {
        fill: #4b321d;
      }
    </style>
  </defs>
  <path class="cls-2" d="M44.7,7.3l-1.4,12.3c-1.3,15.4-3.4,35.6-3.4,35.6,0,1.8-.4,3.1-1.2,4s-1.9,1.3-3.2,1.3-2.4-.4-3.1-1.3c-.8-.9-1.2-2.2-1.2-4v-14.4h-9v-2.8,2.8h-9v14.4c-.1,1.8-.5,3.1-1.3,4s-1.8,1.3-3.2,1.3c-1.3,0-2.3-.5-3.1-1.3-.8-.9-1.2-2.2-1.2-4,0,0-1.9-20.2-3.1-35.6L0,7.3c0-2,.8-3.8,2.2-5.2C3.5.8,5.4,0,7.4,0s3.9.9,5.1,2.3h0s0,.1.2.2c0,0,.2.2.2.3.8,1,1.8,2.6,1.7,4.1-.1,3.8-.5,11.9-.9,18.3v.2c-.3,4.7-.5,8.4-.5,8.4h17.9s-.2-3.6-.4-8.3v-.2c-.3-6.3-.7-14.5-.8-18.3,0-1.5,1-3.1,1.8-4.1,0-.1.2-.2.2-.3,0,0,.1-.1.2-.2h0c1.2-1.4,3-2.2,5.1-2.2s3.9.8,5.2,2.2c1.3,1.3,2.1,3.1,2.1,5.2,0,0,.2-.3.2-.3Z"/>
  <path class="cls-1" d="M41.4,12.2l-1,7.7c-1.5,9.2-1.5,9.8-1.5,9.8h-1.9c0-.1-1.7-.1-1.7-.1,0,0,0-.6-.9-9.9l-.6-7.7c0-1.3.5-2.4,1.1-3.2.6-.8,1.8-1.3,2.8-1.3h.1c.9,0,2.1.6,2.7,1.4.6.9.9,2,.9,3.3h0Z"/>
  <path class="cls-1" d="M4,11.6l.9,7.9c1.3,9.5,1.4,10.1,1.4,10.2h1.7c0-.1,1.6,0,1.6,0,0,0,0-.7.9-10.2l.6-8c0-1.3-.4-2.5-1-3.3s-1.7-1.3-2.6-1.3h-.1c-.9,0-2,.6-2.5,1.4-.6.9-.9,2.1-.9,3.4,0,0,0-.1,0-.1Z"/>
</svg>